<svg width="37" height="38" viewBox="0 0 37 38" fill="none" xmlns="http://www.w3.org/2000/svg">
<path d="M29.5995 34.725L29.5716 24.3999L22.246 31.7255H9.81863L7.68817 33.856L5.72594 31.8938L7.85648 29.7633V17.3359L22.4047 2.78764C23.4159 1.7765 24.6025 1.00478 25.8959 0.5H-0.000457764C1.53208 0.5 2.77454 1.74246 2.77454 3.275V34.725C2.77454 36.2575 4.01701 37.5 5.54954 37.5H32.3745C30.842 37.5 29.5995 36.2575 29.5995 34.725Z" fill="#FFCD1D"/>
<path d="M34.8331 4.74946C31.9432 1.85956 27.2578 1.85956 24.368 4.74946L10.6324 18.4851V26.9881L28.6195 9.00099L30.5817 10.9632L25.7555 15.7894H27.6383V18.5644H22.9805L19.8688 21.6761H21.7517L21.7517 24.4511L17.0938 24.4512L12.5947 28.9503H21.0975L34.8331 15.2147C37.7229 12.3248 37.7229 7.63936 34.8331 4.74946Z" fill="#FFCD1D"/>
</svg>
