<svg width="59" height="59" viewBox="0 0 59 59" fill="none" xmlns="http://www.w3.org/2000/svg">
<rect x="1" y="1" width="57" height="57" fill="white" fill-opacity="0.01"/>
<path d="M26.5371 28.6016H26.6284L26.8613 29.1812L27.0938 28.6016H27.1855L26.8965 29.3125H26.8252L26.5371 28.6016ZM26.5073 28.6016H26.5879L26.6011 29.0352V29.3125H26.5073V28.6016ZM27.1343 28.6016H27.2148V29.3125H27.1211V29.0352L27.1343 28.6016ZM27.4648 28.7842V29.3125H27.374V28.7842H27.4648ZM27.3672 28.644C27.3672 28.6294 27.3716 28.617 27.3804 28.6069C27.3895 28.5968 27.4028 28.5918 27.4204 28.5918C27.4377 28.5918 27.4508 28.5968 27.46 28.6069C27.4694 28.617 27.4741 28.6294 27.4741 28.644C27.4741 28.658 27.4694 28.6701 27.46 28.6802C27.4508 28.6899 27.4377 28.6948 27.4204 28.6948C27.4028 28.6948 27.3895 28.6899 27.3804 28.6802C27.3716 28.6701 27.3672 28.658 27.3672 28.644ZM27.7002 28.897V29.3125H27.6099V28.7842H27.6953L27.7002 28.897ZM27.6787 29.0283L27.6411 29.0269C27.6414 28.9907 27.6468 28.9574 27.6572 28.9268C27.6676 28.8958 27.6823 28.869 27.7012 28.8462C27.7201 28.8234 27.7425 28.8058 27.7686 28.7935C27.7949 28.7808 27.8241 28.7744 27.856 28.7744C27.882 28.7744 27.9054 28.778 27.9263 28.7852C27.9471 28.792 27.9648 28.8031 27.9795 28.8184C27.9945 28.8337 28.0059 28.8535 28.0137 28.8779C28.0215 28.902 28.0254 28.9315 28.0254 28.9663V29.3125H27.9346V28.9653C27.9346 28.9377 27.9305 28.9155 27.9224 28.8989C27.9142 28.882 27.9023 28.8698 27.8867 28.8623C27.8711 28.8545 27.8519 28.8506 27.8291 28.8506C27.8066 28.8506 27.7861 28.8553 27.7676 28.8647C27.7493 28.8742 27.7336 28.8872 27.7202 28.9038C27.7072 28.9204 27.6969 28.9395 27.6895 28.9609C27.6823 28.9821 27.6787 29.0046 27.6787 29.0283ZM28.5049 28.7842H28.5869V29.3013C28.5869 29.3478 28.5775 29.3875 28.5586 29.4204C28.5397 29.4533 28.5133 29.4782 28.4795 29.4951C28.446 29.5124 28.4072 29.521 28.3633 29.521C28.3451 29.521 28.3236 29.5181 28.2988 29.5122C28.2744 29.5067 28.2503 29.4971 28.2266 29.4834C28.2031 29.4701 28.1834 29.452 28.1675 29.4292L28.2148 29.3755C28.237 29.4022 28.2601 29.4207 28.2842 29.4312C28.3086 29.4416 28.3327 29.4468 28.3564 29.4468C28.3851 29.4468 28.4098 29.4414 28.4307 29.4307C28.4515 29.4199 28.4676 29.404 28.479 29.3828C28.4907 29.362 28.4966 29.3363 28.4966 29.3057V28.9004L28.5049 28.7842ZM28.1411 29.0542V29.0439C28.1411 29.0036 28.1458 28.967 28.1553 28.9341C28.165 28.9009 28.1789 28.8724 28.1968 28.8486C28.215 28.8249 28.237 28.8066 28.2627 28.7939C28.2884 28.7809 28.3174 28.7744 28.3496 28.7744C28.3828 28.7744 28.4118 28.7803 28.4365 28.792C28.4616 28.8034 28.4827 28.8201 28.5 28.8423C28.5176 28.8641 28.5314 28.8905 28.5415 28.9214C28.5516 28.9523 28.5586 28.9873 28.5625 29.0264V29.0713C28.5589 29.11 28.5519 29.1449 28.5415 29.1758C28.5314 29.2067 28.5176 29.2331 28.5 29.2549C28.4827 29.2767 28.4616 29.2935 28.4365 29.3052C28.4115 29.3166 28.3822 29.3223 28.3486 29.3223C28.3171 29.3223 28.2884 29.3156 28.2627 29.3022C28.2373 29.2889 28.2155 29.2702 28.1973 29.2461C28.179 29.222 28.165 29.1937 28.1553 29.1611C28.1458 29.1283 28.1411 29.0926 28.1411 29.0542ZM28.2314 29.0439V29.0542C28.2314 29.0806 28.234 29.1053 28.2393 29.1284C28.2448 29.1515 28.2531 29.1719 28.2642 29.1895C28.2756 29.207 28.29 29.2209 28.3076 29.231C28.3252 29.2407 28.3462 29.2456 28.3706 29.2456C28.4006 29.2456 28.4253 29.2393 28.4448 29.2266C28.4644 29.2139 28.4798 29.1971 28.4912 29.1763C28.5029 29.1554 28.512 29.1328 28.5186 29.1084V28.9907C28.515 28.9728 28.5094 28.9556 28.502 28.939C28.4948 28.922 28.4854 28.9071 28.4736 28.894C28.4622 28.8807 28.4481 28.8701 28.4312 28.8623C28.4142 28.8545 28.3944 28.8506 28.3716 28.8506C28.3468 28.8506 28.3255 28.8558 28.3076 28.8662C28.29 28.8763 28.2756 28.8903 28.2642 28.9082C28.2531 28.9258 28.2448 28.9463 28.2393 28.9697C28.234 28.9928 28.2314 29.0176 28.2314 29.0439ZM29.167 29.0864H29.2607C29.2559 29.1313 29.243 29.1715 29.2222 29.207C29.2013 29.2425 29.1719 29.2707 29.1338 29.2915C29.0957 29.312 29.0482 29.3223 28.9912 29.3223C28.9495 29.3223 28.9116 29.3145 28.8774 29.2988C28.8436 29.2832 28.8145 29.2611 28.79 29.2324C28.7656 29.2035 28.7467 29.1688 28.7334 29.1284C28.7204 29.0877 28.7139 29.0425 28.7139 28.9927V28.9219C28.7139 28.8721 28.7204 28.827 28.7334 28.7866C28.7467 28.7459 28.7658 28.7111 28.7905 28.6821C28.8156 28.6532 28.8457 28.6309 28.8809 28.6152C28.916 28.5996 28.9556 28.5918 28.9995 28.5918C29.0532 28.5918 29.0986 28.6019 29.1357 28.6221C29.1729 28.6423 29.2017 28.6702 29.2222 28.7061C29.243 28.7415 29.2559 28.7827 29.2607 28.8296H29.167C29.1624 28.7964 29.154 28.7679 29.1416 28.7441C29.1292 28.7201 29.1117 28.7015 29.0889 28.6885C29.0661 28.6755 29.0363 28.6689 28.9995 28.6689C28.9679 28.6689 28.9401 28.675 28.916 28.687C28.8923 28.6991 28.8722 28.7161 28.856 28.7383C28.84 28.7604 28.828 28.7869 28.8198 28.8179C28.8117 28.8488 28.8076 28.8831 28.8076 28.9209V28.9927C28.8076 29.0275 28.8112 29.0602 28.8184 29.0908C28.8258 29.1214 28.8371 29.1483 28.8521 29.1714C28.867 29.1945 28.8861 29.2127 28.9092 29.2261C28.9323 29.2391 28.9596 29.2456 28.9912 29.2456C29.0312 29.2456 29.0632 29.2393 29.0869 29.2266C29.1107 29.2139 29.1286 29.1956 29.1406 29.1719C29.153 29.1481 29.1618 29.1196 29.167 29.0864ZM29.6987 29.1904V28.7842H29.7896V29.3125H29.7031L29.6987 29.1904ZM29.7158 29.0791L29.7534 29.0781C29.7534 29.1133 29.7497 29.1458 29.7422 29.1758C29.735 29.2054 29.7233 29.2311 29.707 29.2529C29.6908 29.2747 29.6694 29.2918 29.6431 29.3042C29.6167 29.3162 29.5846 29.3223 29.5469 29.3223C29.5212 29.3223 29.4976 29.3185 29.4761 29.311C29.4549 29.3035 29.4367 29.292 29.4214 29.2764C29.4061 29.2607 29.3942 29.2404 29.3857 29.2153C29.3776 29.1903 29.3735 29.1602 29.3735 29.125V28.7842H29.4639V29.126C29.4639 29.1497 29.4665 29.1694 29.4717 29.1851C29.4772 29.2004 29.4845 29.2126 29.4937 29.2217C29.5031 29.2305 29.5135 29.2367 29.5249 29.2402C29.5366 29.2438 29.5487 29.2456 29.561 29.2456C29.5994 29.2456 29.6299 29.2383 29.6523 29.2236C29.6748 29.2087 29.6909 29.1886 29.7007 29.1636C29.7108 29.1382 29.7158 29.11 29.7158 29.0791ZM30.1484 28.7842V28.8535H29.8628V28.7842H30.1484ZM29.9595 28.6558H30.0498V29.1816C30.0498 29.1995 30.0526 29.2131 30.0581 29.2222C30.0636 29.2313 30.0708 29.2373 30.0796 29.2402C30.0884 29.2432 30.0978 29.2446 30.1079 29.2446C30.1154 29.2446 30.1232 29.244 30.1313 29.2427C30.1398 29.241 30.1462 29.2397 30.1504 29.2388L30.1509 29.3125C30.1437 29.3148 30.1343 29.3169 30.1226 29.3188C30.1112 29.3211 30.0973 29.3223 30.0811 29.3223C30.0589 29.3223 30.0386 29.3179 30.02 29.3091C30.0015 29.3003 29.9867 29.2856 29.9756 29.2651C29.9648 29.2443 29.9595 29.2163 29.9595 29.1812V28.6558ZM30.4736 29.3223C30.4368 29.3223 30.4035 29.3161 30.3735 29.3037C30.3439 29.291 30.3184 29.2733 30.2969 29.2505C30.2757 29.2277 30.2594 29.2007 30.248 29.1694C30.2367 29.1382 30.231 29.104 30.231 29.0669V29.0464C30.231 29.0034 30.2373 28.9652 30.25 28.9316C30.2627 28.8978 30.2799 28.8691 30.3018 28.8457C30.3236 28.8223 30.3483 28.8045 30.376 28.7925C30.4036 28.7804 30.4323 28.7744 30.4619 28.7744C30.4997 28.7744 30.5322 28.7809 30.5596 28.7939C30.5872 28.807 30.6099 28.8252 30.6274 28.8486C30.645 28.8717 30.658 28.8991 30.6665 28.9307C30.675 28.9619 30.6792 28.9961 30.6792 29.0332V29.0737H30.2847V29H30.5889V28.9932C30.5876 28.9697 30.5827 28.9469 30.5742 28.9248C30.5661 28.9027 30.5531 28.8844 30.5352 28.8701C30.5173 28.8558 30.4928 28.8486 30.4619 28.8486C30.4414 28.8486 30.4225 28.853 30.4053 28.8618C30.388 28.8703 30.3732 28.883 30.3608 28.8999C30.3485 28.9168 30.3389 28.9375 30.332 28.9619C30.3252 28.9863 30.3218 29.0145 30.3218 29.0464V29.0669C30.3218 29.092 30.3252 29.1156 30.332 29.1377C30.3392 29.1595 30.3494 29.1787 30.3628 29.1953C30.3765 29.2119 30.3929 29.2249 30.4121 29.2344C30.4316 29.2438 30.4538 29.2485 30.4785 29.2485C30.5104 29.2485 30.5374 29.242 30.5596 29.229C30.5817 29.216 30.6011 29.1986 30.6177 29.1768L30.6724 29.2202C30.661 29.2375 30.6465 29.2539 30.6289 29.2695C30.6113 29.2852 30.5897 29.2979 30.564 29.3076C30.5386 29.3174 30.5085 29.3223 30.4736 29.3223ZM30.7861 29.2646C30.7861 29.2493 30.7909 29.2365 30.8003 29.2261C30.8101 29.2153 30.8241 29.21 30.8423 29.21C30.8605 29.21 30.8743 29.2153 30.8838 29.2261C30.8936 29.2365 30.8984 29.2493 30.8984 29.2646C30.8984 29.2796 30.8936 29.2923 30.8838 29.3027C30.8743 29.3132 30.8605 29.3184 30.8423 29.3184C30.8241 29.3184 30.8101 29.3132 30.8003 29.3027C30.7909 29.2923 30.7861 29.2796 30.7861 29.2646ZM31.2598 29.248C31.2812 29.248 31.3011 29.2437 31.3193 29.2349C31.3376 29.2261 31.3525 29.214 31.3643 29.1987C31.376 29.1831 31.3826 29.1654 31.3843 29.1455H31.4702C31.4686 29.1768 31.458 29.2059 31.4385 29.2329C31.4193 29.2596 31.394 29.2812 31.3628 29.2979C31.3315 29.3141 31.2972 29.3223 31.2598 29.3223C31.2201 29.3223 31.1854 29.3153 31.1558 29.3013C31.1265 29.2873 31.1021 29.2681 31.0825 29.2437C31.0633 29.2192 31.0488 29.1912 31.0391 29.1597C31.0296 29.1278 31.0249 29.0941 31.0249 29.0586V29.0381C31.0249 29.0026 31.0296 28.9691 31.0391 28.9375C31.0488 28.9056 31.0633 28.8774 31.0825 28.853C31.1021 28.8286 31.1265 28.8094 31.1558 28.7954C31.1854 28.7814 31.2201 28.7744 31.2598 28.7744C31.3011 28.7744 31.3372 28.7829 31.3682 28.7998C31.3991 28.8164 31.4233 28.8392 31.4409 28.8682C31.4588 28.8968 31.4686 28.9294 31.4702 28.9658H31.3843C31.3826 28.944 31.3765 28.9243 31.3657 28.9067C31.3553 28.8892 31.341 28.8752 31.3228 28.8647C31.3049 28.854 31.2839 28.8486 31.2598 28.8486C31.2321 28.8486 31.2088 28.8542 31.1899 28.8652C31.1714 28.876 31.1566 28.8906 31.1455 28.9092C31.1348 28.9274 31.127 28.9478 31.1221 28.9702C31.1175 28.9924 31.1152 29.015 31.1152 29.0381V29.0586C31.1152 29.0817 31.1175 29.1045 31.1221 29.127C31.1266 29.1494 31.1343 29.1698 31.145 29.188C31.1561 29.2062 31.1709 29.2209 31.1895 29.2319C31.2083 29.2427 31.2318 29.248 31.2598 29.248ZM31.5479 29.0542V29.043C31.5479 29.0049 31.5534 28.9696 31.5645 28.937C31.5755 28.9041 31.5915 28.8757 31.6123 28.8516C31.6331 28.8271 31.6584 28.8083 31.688 28.7949C31.7176 28.7812 31.7508 28.7744 31.7876 28.7744C31.8247 28.7744 31.8581 28.7812 31.8877 28.7949C31.9176 28.8083 31.943 28.8271 31.9639 28.8516C31.985 28.8757 32.0011 28.9041 32.0122 28.937C32.0233 28.9696 32.0288 29.0049 32.0288 29.043V29.0542C32.0288 29.0923 32.0233 29.1276 32.0122 29.1602C32.0011 29.1927 31.985 29.2212 31.9639 29.2456C31.943 29.2697 31.9178 29.2886 31.8882 29.3022C31.8589 29.3156 31.8257 29.3223 31.7886 29.3223C31.7515 29.3223 31.7181 29.3156 31.6885 29.3022C31.6589 29.2886 31.6335 29.2697 31.6123 29.2456C31.5915 29.2212 31.5755 29.1927 31.5645 29.1602C31.5534 29.1276 31.5479 29.0923 31.5479 29.0542ZM31.6382 29.043V29.0542C31.6382 29.0806 31.6413 29.1055 31.6475 29.1289C31.6536 29.152 31.6629 29.1725 31.6753 29.1904C31.688 29.2083 31.7038 29.2225 31.7227 29.2329C31.7415 29.243 31.7635 29.248 31.7886 29.248C31.8133 29.248 31.835 29.243 31.8535 29.2329C31.8724 29.2225 31.888 29.2083 31.9004 29.1904C31.9128 29.1725 31.922 29.152 31.9282 29.1289C31.9347 29.1055 31.938 29.0806 31.938 29.0542V29.043C31.938 29.0169 31.9347 28.9924 31.9282 28.9692C31.922 28.9458 31.9126 28.9251 31.8999 28.9072C31.8875 28.889 31.8719 28.8747 31.853 28.8643C31.8345 28.8538 31.8127 28.8486 31.7876 28.8486C31.7629 28.8486 31.741 28.8538 31.7222 28.8643C31.7036 28.8747 31.688 28.889 31.6753 28.9072C31.6629 28.9251 31.6536 28.9458 31.6475 28.9692C31.6413 28.9924 31.6382 29.0169 31.6382 29.043ZM32.2319 28.8892V29.3125H32.1411V28.7842H32.2271L32.2319 28.8892ZM32.2134 29.0283L32.1714 29.0269C32.1717 28.9907 32.1764 28.9574 32.1855 28.9268C32.1947 28.8958 32.2082 28.869 32.2261 28.8462C32.244 28.8234 32.2663 28.8058 32.293 28.7935C32.3197 28.7808 32.3506 28.7744 32.3857 28.7744C32.4105 28.7744 32.4333 28.778 32.4541 28.7852C32.4749 28.792 32.493 28.8029 32.5083 28.8179C32.5236 28.8328 32.5355 28.8521 32.5439 28.8755C32.5524 28.8989 32.5566 28.9272 32.5566 28.9604V29.3125H32.4663V28.9648C32.4663 28.9372 32.4616 28.915 32.4521 28.8984C32.443 28.8818 32.43 28.8698 32.4131 28.8623C32.3962 28.8545 32.3763 28.8506 32.3535 28.8506C32.3268 28.8506 32.3045 28.8553 32.2866 28.8647C32.2687 28.8742 32.2544 28.8872 32.2437 28.9038C32.2329 28.9204 32.2251 28.9395 32.2202 28.9609C32.2157 28.9821 32.2134 29.0046 32.2134 29.0283ZM32.5557 28.9785L32.4951 28.9971C32.4954 28.9681 32.5002 28.9403 32.5093 28.9136C32.5187 28.8869 32.5322 28.8631 32.5498 28.8423C32.5677 28.8215 32.5897 28.805 32.6157 28.793C32.6418 28.7806 32.6715 28.7744 32.7051 28.7744C32.7334 28.7744 32.7585 28.7782 32.7803 28.7856C32.8024 28.7931 32.821 28.8047 32.8359 28.8203C32.8512 28.8356 32.8628 28.8553 32.8706 28.8794C32.8784 28.9035 32.8823 28.9321 32.8823 28.9653V29.3125H32.7915V28.9644C32.7915 28.9347 32.7868 28.9118 32.7773 28.8955C32.7682 28.8789 32.7552 28.8674 32.7383 28.8608C32.7217 28.854 32.7018 28.8506 32.6787 28.8506C32.6589 28.8506 32.6413 28.854 32.626 28.8608C32.6107 28.8677 32.5978 28.8771 32.5874 28.8892C32.577 28.9009 32.569 28.9144 32.5635 28.9297C32.5583 28.945 32.5557 28.9613 32.5557 28.9785Z" fill="#F2F4F6"/>
<path d="M1 1H58M1 1V58M1 1L58 58M58 1V58M58 1L1 58M58 58H1" stroke="#DADEE4" stroke-width="0.13"/>
<circle cx="29.5" cy="29.5" r="23.75" stroke="#DADEE4" stroke-width="0.13"/>
<rect x="5.75" y="10.5" width="47.5" height="38" rx="1" stroke="#DADEE4" stroke-width="0.13"/>
<rect x="10.5" y="5.75" width="38" height="47.5" rx="1" stroke="#DADEE4" stroke-width="0.13"/>
<rect x="8.125" y="8.125" width="42.75" height="42.75" rx="1" stroke="#DADEE4" stroke-width="0.13"/>
<circle cx="29.5" cy="29.5" r="9.5" stroke="#DADEE4" stroke-width="0.13"/>
<path d="M34.1645 17.4211C33.0025 16.8124 31.5672 17.261 30.9586 18.4229C30.35 19.5848 30.7985 21.0201 31.9604 21.6288L36.9479 24.2413C38.1099 24.8499 39.5452 24.4014 40.1538 23.2394C40.7624 22.0775 40.3139 20.6422 39.152 20.0336L34.1645 17.4211Z" fill="#08415C"/>
<path fill-rule="evenodd" clip-rule="evenodd" d="M54.008 23.04C54.484 21.4197 53.7736 19.6223 52.1944 18.8244L34.5161 9.8925C33.4088 9.33302 32.0862 9.38702 31.0257 10.0487C27.5237 12.2341 8.07383 24.3797 5.58496 26.1709C3.38462 27.7543 2.59236 30.6339 2.58129 32.9407C2.5704 35.2123 3.32413 38.1806 5.74484 39.6419C8.27964 41.172 21.6391 47.7194 24.5109 49.1242C25.6431 49.678 26.9464 49.5784 27.9714 48.9296L52.3939 33.4699C53.9759 32.4685 54.4003 30.5423 53.7893 29.0278C53.1837 27.5269 53.0793 26.2016 54.008 23.04ZM47.2112 21.6285L32.9712 14.4338C29.2677 16.746 17.6356 24.0176 11.6962 27.8313L26.0082 35.0503L47.2112 21.6285ZM7.64881 31.1098C7.46491 31.5979 7.33479 32.2237 7.33124 32.9635C7.32359 34.5588 7.89531 35.3917 8.19963 35.5754C9.88346 36.5918 17.3384 40.3002 22.4022 42.7964C22.3828 42.5581 22.371 42.3191 22.3675 42.0783C22.3511 40.979 22.5044 39.9076 22.7971 38.7506L7.64881 31.1098ZM49.0742 29.9496L27.3489 43.702C27.1955 43.0488 27.1246 42.5208 27.1169 42.0074C27.1073 41.3612 27.1985 40.6639 27.4598 39.6959C27.6388 39.6204 27.8128 39.5296 27.98 39.4238L48.5788 26.3845C48.5376 27.6177 48.6951 28.767 49.0742 29.9496Z" fill="#08415C"/>
</svg>
