<svg width="20" height="24" viewBox="0 0 20 24" fill="none" xmlns="http://www.w3.org/2000/svg">
<path d="M1 0C0.447717 0 0 0.447715 0 1V22.5C0 23.0523 0.447715 23.5 1 23.5H18.044C18.5963 23.5 19.044 23.0523 19.044 22.5V1C19.044 0.447715 18.5963 0 18.044 0H1ZM9.12527 21.0612C9.12528 21.6135 8.67756 22.0612 8.12527 22.0612H2.19025C1.63797 22.0612 1.19025 21.6135 1.19025 21.0612V2.43878C1.19025 1.88649 1.63797 1.43878 2.19025 1.43878H12.0928C12.645 1.43878 13.0928 1.88649 13.0928 2.43878V16.2653C13.0928 16.8176 12.645 17.2653 12.0928 17.2653H10.1253C9.57297 17.2653 9.12525 17.713 9.12525 18.2653L9.12527 21.0612ZM10.3155 19.3234C10.3155 18.9814 10.5928 18.7041 10.9349 18.7041C11.459 18.7041 11.7462 19.3144 11.4122 19.7183C11.0422 20.1655 10.3155 19.9039 10.3155 19.3234ZM15.4733 21.0612C15.4733 21.6135 15.0256 22.0612 14.4733 22.0612H13.2822C12.4361 22.0612 11.9724 21.0758 12.5117 20.4238L14.0535 18.5601C14.2019 18.3808 14.283 18.1554 14.283 17.9227V2.03391C14.283 1.70523 14.5495 1.43878 14.8781 1.43878C15.2068 1.43878 15.4733 1.70523 15.4733 2.03391L15.4733 21.0612ZM17.8538 21.4661C17.8538 21.7948 17.5874 22.0612 17.2587 22.0612C16.93 22.0612 16.6636 21.7948 16.6636 21.4661V2.03391C16.6636 1.70523 16.93 1.43878 17.2587 1.43878C17.5874 1.43878 17.8538 1.70523 17.8538 2.03391V21.4661Z" fill="black"/>
</svg>
