<svg width="50" height="59" viewBox="0 0 50 59" fill="none" xmlns="http://www.w3.org/2000/svg">
<path d="M1.46765 6.50485H6.36595V1.46765C6.36595 0.656934 7.0236 0 7.83431 0H37.1753C44.0748 0 49.7144 5.63957 49.7144 12.5392V50.7377C49.7144 51.5484 49.0575 52.2054 48.2468 52.2054H43.3484V57.2426C43.3484 58.0533 42.6908 58.7102 41.8801 58.7102H1.46765C0.656934 58.7102 0 58.0533 0 57.2426V7.9725C0 7.16179 0.656934 6.50485 1.46765 6.50485ZM11.9857 19.1276C10.0553 19.1276 10.0553 16.1923 11.9857 16.1923H31.3621C33.2925 16.1923 33.2925 19.1276 31.3621 19.1276H11.9857ZM11.9857 34.4901C10.0553 34.4901 10.0553 31.5548 11.9857 31.5548H31.3621C33.2925 31.5548 33.2925 34.4901 31.3621 34.4901H11.9857ZM11.9857 26.8089C10.0553 26.8089 10.0553 23.8736 11.9857 23.8736H31.3621C33.2925 23.8736 33.2925 26.8089 31.3621 26.8089H11.9857ZM9.30196 6.50485H30.8086C37.7082 6.50485 43.3484 12.1444 43.3484 19.044V49.2701H46.7791V12.5392C46.7791 7.26029 42.4541 2.9353 37.1753 2.9353H9.30196V6.50485ZM10.1176 40.4124H33.2308C34.0408 40.4124 34.6985 41.0701 34.6985 41.8801V49.3537C34.6985 50.1644 34.0408 50.8221 33.2308 50.8221H10.1176C9.30692 50.8221 8.64999 50.1644 8.64999 49.3537V41.8801C8.64999 41.0701 9.30692 40.4124 10.1176 40.4124ZM31.7625 43.3477H11.5853V47.886H31.7625V43.3477ZM30.8086 9.44015H2.9353V55.7749H40.4124V19.044C40.4124 13.7651 36.0882 9.44015 30.8086 9.44015Z" fill="black"/>
</svg>
