<svg width="18" height="15" viewBox="0 0 18 15" fill="none" xmlns="http://www.w3.org/2000/svg">
<path d="M16.6311 13.056L17.0196 13.5435L17.1777 12.9405C17.2122 12.809 17.2388 12.6613 17.2388 12.5V2.5V1.79446L16.7164 2.26857L11.8949 6.64357L11.6779 6.84054L11.8605 7.06976L16.6311 13.056ZM2.51642 13.5204L2.21628 13.8935L2.67868 14.018C2.70234 14.0244 2.72234 14.0266 2.72552 14.0269L2.72584 14.027C2.73254 14.0277 2.73818 14.0282 2.74148 14.0284C2.74835 14.0289 2.75498 14.0292 2.76 14.0294C2.77054 14.0299 2.7835 14.0302 2.79775 14.0306C2.82669 14.0312 2.86724 14.0318 2.91794 14.0324C3.01965 14.0335 3.16593 14.0346 3.35003 14.0355C3.71839 14.0375 4.2402 14.0391 4.86408 14.0404C6.11193 14.0429 7.7692 14.0442 9.42635 14.0442C11.0835 14.0442 12.7408 14.0429 13.9886 14.0404C14.6125 14.0391 15.1343 14.0375 15.5027 14.0355C15.6868 14.0346 15.833 14.0335 15.9348 14.0324C15.9855 14.0318 16.026 14.0312 16.055 14.0306C16.0692 14.0302 16.0822 14.0299 16.0927 14.0294C16.0977 14.0292 16.1044 14.0289 16.1112 14.0284C16.1145 14.0282 16.1202 14.0277 16.1269 14.027C16.1286 14.0268 16.1493 14.0247 16.174 14.018L16.64 13.8925L16.3349 13.5187L11.4213 7.49865L11.2108 7.24074L10.9667 7.46712L9.42107 8.90057L7.80089 7.47186L7.55564 7.25559L7.3507 7.51038L2.51642 13.5204ZM2.13634 2.26857L1.61385 1.79446V2.5V12.5C1.61385 12.6613 1.64045 12.809 1.67497 12.9405L1.83313 13.5435L2.22163 13.056L6.99217 7.06976L7.17483 6.84054L6.95777 6.64357L2.13634 2.26857ZM16.5994 1.48258L17.1655 0.974462C17.4834 1.36155 17.6853 1.89307 17.6853 2.5V12.5C17.6853 13.755 16.8223 14.6875 15.8549 14.6875H2.99778C2.03043 14.6875 1.16742 13.755 1.16742 12.5V2.5C1.16742 1.89307 1.36927 1.36155 1.68716 0.974461L2.25334 1.48258L9.21763 7.73258L9.42635 7.91989L9.63507 7.73258L16.5994 1.48258ZM17.1345 0.9375H16.3906H2.46206H1.71824C2.05506 0.546376 2.51333 0.3125 2.99778 0.3125H15.8549C16.3394 0.3125 16.7976 0.546376 17.1345 0.9375Z" fill="black" stroke="black" stroke-width="0.625"/>
</svg>
