<svg width="12" height="12" viewBox="0 0 12 12" fill="none" xmlns="http://www.w3.org/2000/svg">
<path fill-rule="evenodd" clip-rule="evenodd" d="M8.18173 0.45321C8.54476 0.453392 8.91511 0.50728 9.27302 0.633374C11.4555 1.38182 12.1444 3.85145 11.5414 5.87382L11.5393 5.8808L11.537 5.88772C11.1994 6.90839 10.6464 7.84277 9.91886 8.60864L9.91615 8.61149L9.9134 8.61429C8.92144 9.62548 7.83252 10.5235 6.66002 11.2972L6.65655 11.2995L6.26172 11.5506L5.86699 11.2933C4.68972 10.5245 3.59439 9.62622 2.59326 8.6097L2.58959 8.60598L2.586 8.60218C1.86449 7.83758 1.31147 6.90986 0.968668 5.88991L0.966344 5.883L0.964226 5.87602C0.349835 3.84998 1.04145 1.38305 3.24006 0.623137C3.41665 0.559343 3.59896 0.514508 3.78252 0.489389L3.81555 0.484869H3.87324C4.02686 0.463196 4.17885 0.453209 4.33012 0.453209H4.39303L4.40079 0.453456C4.73797 0.46416 5.06634 0.522171 5.38484 0.627335H5.44824L5.55163 0.679026C5.56983 0.68813 5.58811 0.698228 5.60622 0.709381C5.70668 0.745995 5.81264 0.790955 5.9194 0.850957L6.10848 0.939999L6.12374 0.948565C6.16678 0.972727 6.20943 1.0015 6.24559 1.02747C6.82333 0.65169 7.49185 0.448359 8.18173 0.45321ZM8.17617 1.43243C7.59725 1.42805 7.02975 1.62938 6.55687 2.00976L6.24949 2.25702L5.9425 2.00927C5.93363 2.00212 5.91696 1.99101 5.86815 1.96102C5.85995 1.95598 5.85063 1.95026 5.84129 1.94445L5.83816 1.94251L5.83506 1.94052C5.79787 1.91664 5.75744 1.88567 5.73449 1.8681C5.73256 1.86663 5.73076 1.86524 5.72909 1.86397C5.7058 1.84617 5.68772 1.8324 5.67068 1.82019C5.6634 1.81498 5.65748 1.8109 5.65275 1.80777L5.46621 1.71992L5.44826 1.70953C5.38684 1.67397 5.31553 1.64389 5.22092 1.6119L5.11249 1.57523L5.10288 1.56561C4.8682 1.48542 4.62696 1.44109 4.37715 1.43245H4.33012C4.21331 1.43245 4.09835 1.44077 3.98338 1.45843L3.94643 1.46411H3.88443C3.77883 1.48061 3.67325 1.50765 3.57033 1.545L3.56654 1.54638L3.56274 1.54769C2.0259 2.0771 1.38492 3.87837 1.89923 5.58493C2.19766 6.46958 2.67612 7.26977 3.29467 7.92636C4.20752 8.85273 5.20133 9.67457 6.26572 10.3832C7.32384 9.67079 8.30949 8.85058 9.21159 7.93137C9.8335 7.27587 10.3114 6.47148 10.6051 5.58712C11.1119 3.87646 10.4677 2.07724 8.95371 1.55909L8.95144 1.55831L8.94917 1.55751C8.70788 1.47228 8.44808 1.43245 8.17988 1.43245L8.17617 1.43243Z" fill="black"/>
</svg>
