<svg width="15" height="15" viewBox="0 0 15 15" fill="none" xmlns="http://www.w3.org/2000/svg">
<path fill-rule="evenodd" clip-rule="evenodd" d="M3.08229 7.40686C3.08229 6.93797 3.16016 6.48844 3.29916 6.06681L0.866293 4.20898C0.392142 5.17169 0.125 6.25646 0.125 7.40686C0.125 8.55627 0.391813 9.64038 0.865308 10.6024L3.29686 8.741C3.15918 8.32133 3.08229 7.87345 3.08229 7.40686Z" fill="#FBBC05"/>
<path fill-rule="evenodd" clip-rule="evenodd" d="M7.35482 3.14059C8.37344 3.14059 9.29349 3.50153 10.0164 4.09215L12.1193 1.99217C10.8378 0.876555 9.19491 0.1875 7.35482 0.1875C4.49808 0.1875 2.04287 1.82122 0.867188 4.2083L3.30005 6.06612C3.86062 4.36449 5.45854 3.14059 7.35482 3.14059Z" fill="#EB4335"/>
<path fill-rule="evenodd" clip-rule="evenodd" d="M7.35482 11.6719C5.45854 11.6719 3.86062 10.448 3.30005 8.74634L0.867188 10.6038C2.04287 12.9912 4.49808 14.625 7.35482 14.625C9.11802 14.625 10.8014 13.9989 12.0648 12.8259L9.75548 11.0406C9.10389 11.451 8.28341 11.6719 7.35482 11.6719Z" fill="#34A853"/>
<path fill-rule="evenodd" clip-rule="evenodd" d="M14.2539 7.4055C14.2539 6.97895 14.1881 6.51958 14.0896 6.09302H7.35352V8.88205H11.2308C11.037 9.83295 10.5093 10.564 9.75418 11.0398L12.0635 12.8251C13.3907 11.5933 14.2539 9.75846 14.2539 7.4055Z" fill="#4285F4"/>
</svg>
