<svg width="21" height="21" viewBox="0 0 21 21" fill="none" xmlns="http://www.w3.org/2000/svg">
<path d="M3.08376 4.78711C2.96871 4.78679 2.85486 4.76379 2.74871 4.71943C2.64256 4.67506 2.54619 4.61021 2.46513 4.52857C2.38406 4.44694 2.31989 4.35012 2.27627 4.24366C2.23266 4.1372 2.21046 4.02319 2.21095 3.90814V1.27576C2.2104 1.0437 2.30204 0.820912 2.46571 0.656393C2.62938 0.491875 2.85169 0.399089 3.08376 0.398438C3.31582 0.399089 3.53813 0.491875 3.7018 0.656393C3.86548 0.820912 3.95712 1.0437 3.95657 1.27576V3.90814C3.95706 4.02319 3.93486 4.1372 3.89124 4.24366C3.84763 4.35012 3.78345 4.44694 3.70239 4.52857C3.62132 4.61021 3.52496 4.67506 3.41881 4.71943C3.31266 4.76379 3.1988 4.78679 3.08376 4.78711Z" stroke="black" stroke-linecap="round" stroke-linejoin="round"/>
<path d="M17.0461 1.27344H3.95312V3.90541H17.0461V1.27344Z" stroke="black" stroke-linecap="round" stroke-linejoin="round"/>
<path d="M17.0461 3.90625H3.95312V17.0669H17.0461V3.90625Z" stroke="black" stroke-linecap="round" stroke-linejoin="round"/>
<path d="M1.40848 1.59375H2.20787V3.59531H1.40848C1.27738 3.59531 1.14756 3.56949 1.02644 3.51932C0.905314 3.46915 0.79526 3.39561 0.702557 3.30291C0.515336 3.11569 0.410156 2.86176 0.410156 2.59699V2.59166C0.410265 2.32696 0.515493 2.07314 0.702702 1.88601C0.889912 1.69887 1.14378 1.59375 1.40848 1.59375Z" stroke="black" stroke-linecap="round" stroke-linejoin="round"/>
<path d="M17.9197 4.78711C18.1518 4.78646 18.3741 4.69367 18.5377 4.52915C18.7014 4.36464 18.7931 4.14185 18.7925 3.90979V1.27576C18.7931 1.0437 18.7014 0.820912 18.5377 0.656393C18.3741 0.491875 18.1518 0.399089 17.9197 0.398438C17.6876 0.399089 17.4653 0.491875 17.3016 0.656393C17.138 0.820912 17.0463 1.0437 17.0469 1.27576V3.90814C17.0464 4.02319 17.0686 4.1372 17.1122 4.24366C17.1558 4.35012 17.22 4.44694 17.3011 4.52857C17.3821 4.61021 17.4785 4.67506 17.5846 4.71943C17.6908 4.76379 17.8046 4.78679 17.9197 4.78711Z" stroke="black" stroke-linecap="round" stroke-linejoin="round"/>
<path d="M19.5915 3.59334H18.7921V1.59178H19.5915C19.8563 1.59178 20.1102 1.69696 20.2974 1.88418C20.4847 2.0714 20.5898 2.32533 20.5898 2.5901V2.59543C20.5898 2.8602 20.4847 3.11413 20.2974 3.30135C20.1102 3.48857 19.8563 3.59375 19.5915 3.59375V3.59334Z" stroke="black" stroke-linecap="round" stroke-linejoin="round"/>
<path d="M3.08376 16.1953C2.85169 16.196 2.62938 16.2888 2.46571 16.4533C2.30204 16.6178 2.2104 16.8406 2.21095 17.0726V19.705C2.21046 19.8201 2.23266 19.9341 2.27627 20.0405C2.31989 20.147 2.38406 20.2438 2.46513 20.3254C2.54619 20.4071 2.64256 20.4719 2.74871 20.5163C2.85486 20.5607 2.96871 20.5837 3.08376 20.584C3.31582 20.5833 3.53813 20.4905 3.7018 20.326C3.86548 20.1615 3.95712 19.9387 3.95657 19.7067V17.0743C3.95706 16.9592 3.93486 16.8452 3.89124 16.7388C3.84763 16.6323 3.78345 16.5355 3.70239 16.4538C3.62132 16.3722 3.52496 16.3074 3.41881 16.263C3.31266 16.2186 3.1988 16.1956 3.08376 16.1953Z" stroke="black" stroke-linecap="round" stroke-linejoin="round"/>
<path d="M17.0461 17.0703H3.95312V19.7023H17.0461V17.0703Z" stroke="black" stroke-linecap="round" stroke-linejoin="round"/>
<path d="M1.40848 17.3828H2.20787V19.3844H1.40848C1.27738 19.3844 1.14756 19.3586 1.02644 19.3084C0.905314 19.2582 0.79526 19.1847 0.702557 19.092C0.609855 18.9993 0.536319 18.8892 0.486149 18.7681C0.435979 18.647 0.410156 18.5172 0.410156 18.3861V18.3807C0.410265 18.116 0.515493 17.8622 0.702702 17.6751C0.889912 17.4879 1.14378 17.3828 1.40848 17.3828Z" stroke="black" stroke-linecap="round" stroke-linejoin="round"/>
<path d="M17.9197 16.1953C18.1518 16.196 18.3741 16.2888 18.5377 16.4533C18.7014 16.6178 18.7931 16.8406 18.7925 17.0726V19.705C18.793 19.8201 18.7708 19.9341 18.7272 20.0405C18.6836 20.147 18.6194 20.2438 18.5383 20.3254C18.4573 20.4071 18.3609 20.4719 18.2547 20.5163C18.1486 20.5607 18.0347 20.5837 17.9197 20.584C17.6876 20.5833 17.4653 20.4905 17.3016 20.326C17.138 20.1615 17.0463 19.9387 17.0469 19.7067V17.0743C17.0464 16.9592 17.0686 16.8452 17.1122 16.7388C17.1558 16.6323 17.22 16.5355 17.3011 16.4538C17.3821 16.3722 17.4785 16.3074 17.5846 16.263C17.6908 16.2186 17.8046 16.1956 17.9197 16.1953Z" stroke="black" stroke-linecap="round" stroke-linejoin="round"/>
<path d="M19.5915 19.3824H18.7921V17.3808H19.5915C19.8563 17.3808 20.1102 17.486 20.2974 17.6732C20.4847 17.8605 20.5898 18.1144 20.5898 18.3792V18.3845C20.5898 18.6493 20.4847 18.9032 20.2974 19.0904C20.1102 19.2776 19.8563 19.3828 19.5915 19.3828V19.3824Z" stroke="black" stroke-linecap="round" stroke-linejoin="round"/>
<path d="M5.88281 5.73438H10.5008" stroke="black" stroke-linecap="round" stroke-linejoin="round"/>
<path d="M5.88281 7.64062H15.2282" stroke="black" stroke-linecap="round" stroke-linejoin="round"/>
<path d="M5.88281 9.53906H15.2282" stroke="black" stroke-linecap="round" stroke-linejoin="round"/>
<path d="M5.88281 11.4453H15.2282" stroke="black" stroke-linecap="round" stroke-linejoin="round"/>
<path d="M5.88281 13.3359H15.2282" stroke="black" stroke-linecap="round" stroke-linejoin="round"/>
<path d="M10.5 15.2422H15.2275" stroke="black" stroke-linecap="round" stroke-linejoin="round"/>
</svg>
