<svg width="28" height="28" viewBox="0 0 28 28" fill="none" xmlns="http://www.w3.org/2000/svg">
<path fill-rule="evenodd" clip-rule="evenodd" d="M4.07498 11.0251C3.35622 11.672 2.9458 12.5936 2.9458 13.5605V22.2746C2.9458 24.1584 4.47298 25.6856 6.35686 25.6856H22.2751C24.159 25.6856 25.6862 24.1584 25.6862 22.2746V13.5605C25.6862 12.5936 25.2758 11.672 24.557 11.0251L16.5979 3.8619C15.3006 2.69439 13.3314 2.69439 12.0341 3.86191L4.07498 11.0251ZM13.179 15.4524C11.9231 15.4524 10.9049 16.4706 10.9049 17.7265V22.2746C10.9049 22.9025 11.414 23.4116 12.042 23.4116H16.59C17.218 23.4116 17.7271 22.9025 17.7271 22.2746V17.7265C17.7271 16.4706 16.7089 15.4524 15.453 15.4524H13.179Z" fill="#35383F"/>
</svg>
