<svg width="10" height="6" viewBox="0 0 10 6" fill="none" xmlns="http://www.w3.org/2000/svg">
<path fill-rule="evenodd" clip-rule="evenodd" d="M4.62696 4.58569C5.45539 4.58569 6.12696 3.91412 6.12696 3.08569C6.12696 2.25726 5.45539 1.58569 4.62696 1.58569C3.79853 1.58569 3.12695 2.25726 3.12695 3.08569C3.12695 3.91412 3.79853 4.58569 4.62696 4.58569ZM4.62696 3.72615C4.27326 3.72615 3.9865 3.43939 3.9865 3.08569C3.9865 2.73199 4.27326 2.44524 4.62696 2.44524C4.98066 2.44524 5.26741 2.73199 5.26741 3.08569C5.26741 3.43939 4.98066 3.72615 4.62696 3.72615Z" fill="#0F0F0F"/>
<path fill-rule="evenodd" clip-rule="evenodd" d="M4.6327 0C2.57075 0 1.16843 1.11816 0.428113 1.91991C-0.142705 2.53809 -0.142704 3.46191 0.428113 4.08009C1.16843 4.88186 2.57075 6 4.6327 6C6.69464 6 8.09697 4.88186 8.83729 4.08009C9.4081 3.46191 9.4081 2.53809 8.83729 1.91991C8.09697 1.11816 6.69464 0 4.6327 0ZM1.05785 2.5014C1.71341 1.79144 2.90423 0.857143 4.6327 0.857143C6.36117 0.857143 7.552 1.79144 8.20754 2.5014C8.47514 2.7912 8.47514 3.2088 8.20754 3.4986C7.552 4.20857 6.36117 5.14286 4.6327 5.14286C2.90423 5.14286 1.71341 4.20857 1.05785 3.4986C0.790239 3.2088 0.790239 2.7912 1.05785 2.5014Z" fill="#0F0F0F"/>
</svg>
