<svg width="9" height="9" viewBox="0 0 9 9" fill="none" xmlns="http://www.w3.org/2000/svg">
<path d="M8.99838 2.58569C8.97219 1.68283 8.55492 0.940741 7.96461 0.487061C7.20534 -0.0971174 6.15848 -0.204299 5.28835 0.433062C5.00117 0.644151 4.7324 0.936241 4.50004 1.31997C4.26767 0.936241 3.99931 0.644151 3.71172 0.433471C2.84159 -0.204299 1.79514 -0.0971175 1.03546 0.48747C0.44474 0.94115 0.0278786 1.68324 0.00169696 2.5861C-0.0126211 3.06555 0.0610147 3.60064 0.324059 4.14186C0.737238 4.99154 2.67836 6.88071 4.4849 8.51215L4.49922 8.5277L4.50004 8.52688L4.50085 8.5277L4.51558 8.51215C6.32171 6.88112 8.26243 4.99195 8.67601 4.14186C8.93947 3.60064 9.01229 3.06514 8.99838 2.58569Z" fill="black"/>
</svg>
