<svg width="17" height="19" viewBox="0 0 17 19" fill="none" xmlns="http://www.w3.org/2000/svg">
<path d="M14.353 2.91368C15.9883 4.5316 16.8049 6.75885 16.8329 9.03644C16.8345 9.45991 16.8305 9.88318 16.8256 10.3066C16.825 10.508 16.8245 10.7093 16.8242 10.9107C16.8219 11.6473 16.8154 12.3839 16.8095 13.1205C16.8 14.7713 16.7905 16.4222 16.7807 18.123C11.3159 18.123 5.85112 18.123 0.220719 18.123C0.213603 16.5267 0.206488 14.9305 0.199156 13.2858C0.196015 12.7852 0.192875 12.2846 0.189638 11.7688C0.18808 11.1488 0.18808 11.1488 0.187791 10.8569C0.187267 10.6567 0.186067 10.4564 0.184295 10.2562C0.160709 7.44646 0.72676 5.13429 2.66267 3.00546C5.72654 -0.0121429 11.2696 -0.00228691 14.353 2.91368ZM5.05072 3.40302C5.39656 3.54073 5.39656 3.54073 5.78384 3.50364C7.18808 3.49334 8.51727 4.02374 9.56447 4.94833C10.8977 6.37208 11.0899 8.26932 11.0581 10.122C10.9802 12.4382 9.65032 14.5277 8.00478 16.0899C7.94074 16.1536 7.8767 16.2173 7.81072 16.283C7.81072 16.321 7.81072 16.3589 7.81072 16.398C9.89797 16.398 11.9852 16.398 14.1357 16.398C14.1424 15.1116 14.1424 15.1116 14.1469 13.8251C14.1483 13.299 14.1499 12.7729 14.1531 12.2468C14.1556 11.8218 14.157 11.3968 14.1575 10.9717C14.158 10.8111 14.1588 10.6504 14.16 10.4897C14.177 8.23205 13.9497 5.78386 12.3245 4.05708C10.3026 2.18128 7.40011 2.03344 5.05072 3.40302ZM3.32572 6.96802C2.7603 7.84047 2.31246 8.80843 2.17572 9.84302C2.15571 9.98385 2.13569 10.1247 2.11507 10.2698C2.03267 11.0236 2.04358 11.7809 2.04573 12.5382C2.04634 12.7945 2.04573 13.0508 2.045 13.3072C2.04457 14.3429 2.08553 15.3656 2.17572 16.398C3.55471 16.5342 3.55471 16.5342 4.79916 16.0243C5.00343 15.8483 5.20206 15.6656 5.39572 15.478C5.51413 15.3687 5.63258 15.2594 5.75105 15.1501C7.34754 13.6434 8.44279 11.8712 8.64402 9.64491C8.67634 8.44526 8.46367 7.12502 7.64002 6.20165C7.02893 5.66301 6.48127 5.53763 5.68816 5.56106C4.68034 5.65395 3.96934 6.20524 3.32572 6.96802Z" fill="black"/>
</svg>
