<svg width="31" height="46" viewBox="0 0 31 46" fill="none" xmlns="http://www.w3.org/2000/svg">
<path d="M28.6105 44.8293L2.4141 45.0046C2.05267 45.3459 0.256525 43.2447 0.354669 42.5714L0.579535 6.25203C0.579143 5.97526 1.59663 4.78202 1.87333 4.78162L28.8298 4.5533C29.1066 4.55291 30.6287 6.03632 30.6291 6.31309L30.6637 42.8049C30.6641 43.0816 28.8873 44.8289 28.6105 44.8293Z" fill="white"/>
<path d="M27.9297 45.2655L3.12911 45.3007C1.43594 45.3031 0.0563611 43.928 0.0539602 42.2344L0.00435319 7.24253C0.00195234 5.54902 1.37763 4.16992 3.0708 4.16752L27.8714 4.13236C29.5645 4.12996 30.9436 5.50516 30.946 7.19867L30.9956 42.1905C30.998 43.8841 29.6229 45.2631 27.9297 45.2655ZM3.07174 4.83509C1.74677 4.83696 0.670247 5.91669 0.672126 7.24159L0.721733 42.2334C0.723611 43.5584 1.80319 44.6349 3.12816 44.633L27.9287 44.5978C29.2537 44.596 30.3299 43.5164 30.328 42.1915L30.2784 7.19962C30.2765 5.87472 29.1973 4.79805 27.8723 4.79993L3.07174 4.83509Z" fill="#2E2E2E"/>
<path d="M21.3226 7.65241L9.63204 7.66899C9.47254 7.66921 9.34313 7.54017 9.3429 7.38067L9.33635 2.75747C9.33612 2.59805 9.46517 2.46857 9.62459 2.46834L21.3152 2.45177C21.4746 2.45154 21.604 2.58066 21.6042 2.74008L21.6107 7.36328C21.611 7.52278 21.482 7.65219 21.3226 7.65241Z" fill="#2E2E2E"/>
<path d="M17.2659 4.81787L13.6775 4.82296C13.1115 4.82376 12.6505 4.36451 12.6497 3.79853L12.6457 1.0347C12.6449 0.468726 13.1047 0.00734293 13.6707 0.00654056L17.2591 0.00145328C17.8251 0.000650911 18.2861 0.460728 18.2869 1.02671L18.2908 3.79053C18.2916 4.35651 17.8319 4.81707 17.2659 4.81787ZM13.6716 0.674174C13.4738 0.674454 13.3132 0.835561 13.3134 1.03376L13.3174 3.79758C13.3176 3.99495 13.4788 4.1556 13.6765 4.15532L17.265 4.15023C17.4628 4.14995 17.6234 3.98885 17.6231 3.79148L17.6192 1.02765C17.6189 0.829457 17.4578 0.668806 17.2601 0.669087L13.6716 0.674174Z" fill="#2E2E2E"/>
<path d="M8.8011 16.4351L5.04829 16.4404L5.04297 12.6875L8.79578 12.6822L8.8011 16.4351Z" fill="#2E2E2E"/>
<path d="M25.9242 13.9282L11.2783 13.949L11.2773 13.2812L25.9233 13.2605L25.9242 13.9282Z" fill="#2E2E2E"/>
<path d="M25.9281 15.8032L11.2822 15.824L11.2812 15.1562L25.9272 15.1355L25.9281 15.8032Z" fill="#2E2E2E"/>
<path d="M8.81282 23.5054L5.06001 23.5108L5.05469 19.7578L8.8075 19.7525L8.81282 23.5054Z" fill="#2E2E2E"/>
<path d="M25.936 20.9985L11.29 21.0193L11.2891 20.3516L25.935 20.3308L25.936 20.9985Z" fill="#2E2E2E"/>
<path d="M25.936 22.8735L11.29 22.8943L11.2891 22.2266L25.935 22.2058L25.936 22.8735Z" fill="#2E2E2E"/>
<path d="M8.82063 30.5836L5.06782 30.5889L5.0625 26.8359L8.81531 26.8306L8.82063 30.5836Z" fill="#2E2E2E"/>
<path d="M25.9438 28.0766L11.2978 28.0974L11.2969 27.4297L25.9428 27.4089L25.9438 28.0766Z" fill="#2E2E2E"/>
<path d="M25.9477 29.9516L11.3017 29.9724L11.3008 29.3047L25.9467 29.2839L25.9477 29.9516Z" fill="#2E2E2E"/>
<path d="M8.83235 37.6537L5.07954 37.6591L5.07422 33.9062L8.82703 33.9009L8.83235 37.6537Z" fill="#2E2E2E"/>
<path d="M25.9555 35.147L11.3095 35.1677L11.3086 34.5L25.9545 34.4792L25.9555 35.147Z" fill="#2E2E2E"/>
<path d="M25.9594 37.022L11.3134 37.0427L11.3125 36.375L25.9584 36.3542L25.9594 37.022Z" fill="#2E2E2E"/>
</svg>
