<svg width="15" height="24" viewBox="0 0 15 24" fill="none" xmlns="http://www.w3.org/2000/svg">
<path d="M11.5625 22.6367H3.4375C1.79671 22.6367 0.488281 21.2964 0.488281 19.6875V3.4375C0.488281 1.79671 1.82855 0.488281 3.4375 0.488281H11.5625C13.2033 0.488281 14.5117 1.82855 14.5117 3.4375V19.6875C14.5117 21.2964 13.2033 22.6367 11.5625 22.6367ZM3.4375 1.15234C2.19127 1.15234 1.15234 2.19127 1.15234 3.4375V19.6875C1.15234 20.9337 2.19127 21.9727 3.4375 21.9727H11.5625C12.8087 21.9727 13.8477 20.9337 13.8477 19.6875V3.4375C13.8477 2.19127 12.8087 1.15234 11.5625 1.15234H3.4375ZM7.5 19.9805C6.2853 19.9805 5.29297 18.9881 5.29297 17.7734C5.29297 16.5587 6.2853 15.5664 7.5 15.5664C8.7147 15.5664 9.70703 16.5587 9.70703 17.7734C9.70703 18.9881 8.7147 19.9805 7.5 19.9805ZM7.5 16.1914C6.64439 16.1914 5.95703 16.8788 5.95703 17.7344C5.95703 18.59 6.64439 19.2773 7.5 19.2773C8.3499 19.2773 9.0338 18.5991 9.04288 17.7515C9.09284 16.8965 8.32897 16.1914 7.5 16.1914Z" fill="black" stroke="black" stroke-width="0.976562"/>
</svg>
