<svg width="33" height="33" viewBox="0 0 33 33" fill="none" xmlns="http://www.w3.org/2000/svg">
<path d="M10.867 9.84021C10.867 6.82627 13.3185 4.37484 16.3324 4.37484C19.3458 4.37484 21.7969 6.82539 21.7978 9.83859C21.7852 12.7958 19.481 15.1808 16.544 15.2921H16.544H16.544H16.5439H16.5439H16.5438H16.5438H16.5437H16.5437H16.5437H16.5436H16.5436H16.5435H16.5435H16.5434H16.5434H16.5433H16.5433H16.5433H16.5432H16.5432H16.5431H16.5431H16.543H16.543H16.5429H16.5429H16.5428H16.5428H16.5428H16.5427H16.5427H16.5426H16.5426H16.5425H16.5425H16.5424H16.5424H16.5423H16.5423H16.5422H16.5422H16.5421H16.5421H16.542H16.542H16.5419H16.5419H16.5419H16.5418H16.5418H16.5417H16.5417H16.5416H16.5416H16.5415H16.5415H16.5414H16.5414H16.5413H16.5413H16.5412H16.5412H16.5411H16.541H16.541H16.5409H16.5409H16.5408H16.5408H16.5407H16.5407H16.5406H16.5406H16.5405H16.5405H16.5404H16.5404H16.5403H16.5403H16.5402H16.5401H16.5401H16.54H16.54H16.5399H16.5399H16.5398H16.5398H16.5397H16.5397H16.5396H16.5395H16.5395H16.5394H16.5394H16.5393H16.5393H16.5392H16.5391H16.5391H16.539H16.539H16.5389H16.5388H16.5388H16.5387H16.5387H16.5386H16.5385H16.5385H16.5384H16.5384H16.5383H16.5382H16.5382H16.5381H16.5381H16.538H16.5379H16.5379H16.5378H16.5377H16.5377H16.5376H16.5375H16.5375H16.5374H16.5374H16.5373H16.5372H16.5372H16.5371H16.537H16.537H16.5369H16.5368H16.5368H16.5367H16.5366H16.5366H16.5365H16.5364H16.5364H16.5363H16.5362H16.5361H16.5361H16.536H16.5359H16.5359H16.5358H16.5357H16.5357H16.5356H16.5355H16.5354H16.5354H16.5353H16.5352H16.5351H16.5351H16.535H16.5349H16.5349H16.5348H16.5347H16.5346H16.5346H16.5345H16.5344H16.5343H16.5342H16.5342H16.5341H16.534H16.5339H16.5339H16.5338H16.5336H16.5335H16.5333H16.5332H16.533H16.5328H16.5327H16.5325H16.5324H16.5322H16.5321H16.5319H16.5318H16.5316H16.5315H16.5313H16.5312H16.531H16.5308H16.5307H16.5305H16.5304H16.5302H16.5301H16.5299H16.5298H16.5296H16.5295H16.5293H16.5292H16.529H16.5289H16.5287H16.5286H16.5285H16.5283H16.5282H16.528H16.5279H16.5277H16.5276H16.5274H16.5273H16.5271H16.527H16.5268H16.5267H16.5266H16.5264H16.5263H16.5261H16.526H16.5258H16.5257H16.5256H16.5254H16.5253H16.5253C16.3946 15.2782 16.2626 15.2798 16.1421 15.2903C13.1392 15.1566 10.867 12.7731 10.867 9.84021Z" stroke="black" stroke-width="1.8239"/>
<path d="M10.0246 27.6664L10.0221 27.6647C8.51474 26.6598 7.79672 25.3854 7.79672 24.1138C7.79672 22.8415 8.51543 21.5541 10.035 20.5364C11.7418 19.4073 14.0265 18.8162 16.3534 18.8162C18.6815 18.8162 20.9589 19.4078 22.6511 20.536C24.1519 21.5365 24.8647 22.8104 24.8765 24.0906C24.8752 25.3751 24.1562 26.649 22.648 27.6668C20.9492 28.8072 18.6662 29.4046 16.3366 29.4046C14.0068 29.4046 11.7235 28.8071 10.0246 27.6664Z" stroke="black" stroke-width="1.8239"/>
</svg>
