<svg width="41" height="42" viewBox="0 0 41 42" fill="none" xmlns="http://www.w3.org/2000/svg">
<path d="M13.5459 12.0312C13.5459 8.19627 16.6651 5.07703 20.5001 5.07703C24.3343 5.07703 27.453 8.19502 27.4543 12.0289C27.4385 15.7918 24.5065 18.8268 20.7693 18.9684H20.7693H20.7692H20.7692H20.7691H20.7691H20.769H20.7689H20.7689H20.7688H20.7688H20.7687H20.7687H20.7686H20.7686H20.7685H20.7684H20.7684H20.7683H20.7683H20.7682H20.7682H20.7681H20.768H20.768H20.7679H20.7679H20.7678H20.7677H20.7677H20.7676H20.7676H20.7675H20.7675H20.7674H20.7673H20.7673H20.7672H20.7671H20.7671H20.767H20.767H20.7669H20.7668H20.7668H20.7667H20.7667H20.7666H20.7665H20.7665H20.7664H20.7663H20.7663H20.7662H20.7662H20.7661H20.766H20.766H20.7659H20.7658H20.7658H20.7657H20.7656H20.7656H20.7655H20.7654H20.7654H20.7653H20.7652H20.7652H20.7651H20.765H20.765H20.7649H20.7648H20.7648H20.7647H20.7646H20.7646H20.7645H20.7644H20.7644H20.7643H20.7642H20.7642H20.7641H20.764H20.7639H20.7639H20.7638H20.7637H20.7637H20.7636H20.7635H20.7634H20.7634H20.7633H20.7632H20.7631H20.7631H20.763H20.7629H20.7628H20.7628H20.7627H20.7626H20.7625H20.7625H20.7624H20.7623H20.7622H20.7622H20.7621H20.762H20.7619H20.7618H20.7618H20.7617H20.7616H20.7615H20.7614H20.7614H20.7613H20.7612H20.7611H20.761H20.761H20.7609H20.7608H20.7607H20.7606H20.7605H20.7605H20.7604H20.7603H20.7602H20.7601H20.76H20.76H20.7599H20.7598H20.7597H20.7596H20.7595H20.7594H20.7593H20.7593H20.7592H20.7591H20.759H20.7589H20.7588H20.7587H20.7586H20.7585H20.7584H20.7583H20.7583H20.7582H20.7581H20.758H20.7579H20.7578H20.7577H20.7576H20.7575H20.7574H20.7573H20.7572H20.7571H20.757H20.7569H20.7568H20.7567H20.7566H20.7565H20.7564H20.7563H20.7561H20.7559H20.7557H20.7555H20.7553H20.7551H20.7549H20.7547H20.7545H20.7543H20.7542H20.754H20.7538H20.7536H20.7534H20.7532H20.753H20.7528H20.7526H20.7524H20.7522H20.752H20.7518H20.7516H20.7514H20.7513H20.7511H20.7509H20.7507H20.7505H20.7503H20.7501H20.7499H20.7497H20.7496H20.7494H20.7492H20.749H20.7488H20.7486H20.7484H20.7482H20.7481H20.7479H20.7477H20.7475H20.7473H20.7471H20.747H20.7468H20.7466H20.7464H20.7462H20.746H20.7459H20.7457H20.7455H20.7455C20.5792 18.9506 20.4113 18.9527 20.258 18.966C16.437 18.7959 13.5459 15.7632 13.5459 12.0312Z" stroke="black" stroke-width="2.32075"/>
<path d="M12.4686 34.7112L12.4654 34.7091C10.5474 33.4304 9.63377 31.8088 9.63377 30.1908C9.63377 28.572 10.5483 26.9338 12.4817 25.6389C14.6535 24.2022 17.5606 23.4502 20.5214 23.4502C23.4837 23.4502 26.3815 24.2029 28.5347 25.6384C30.4442 26.9114 31.3513 28.5323 31.3663 30.1612C31.3646 31.7956 30.4499 33.4166 28.5309 34.7116C26.3694 36.1628 23.4643 36.923 20.5001 36.923C17.5355 36.923 14.6302 36.1626 12.4686 34.7112Z" stroke="black" stroke-width="2.32075"/>
</svg>
