<svg width="38" height="44" viewBox="0 0 38 44" fill="none" xmlns="http://www.w3.org/2000/svg">
<path d="M33.3065 21.9998C33.8394 21.4567 34.338 20.9127 34.7929 20.3713C38.6233 15.8093 38.3336 12.9571 37.4158 11.3676C36.4981 9.7781 34.1732 8.10135 28.307 9.13713C27.6104 9.2603 26.89 9.42012 26.1532 9.61009C25.9493 8.87702 25.7277 8.17317 25.486 7.50857C23.4503 1.91049 20.8353 0.735352 19 0.735352C17.1646 0.735352 14.5497 1.91049 12.5139 7.50857C12.2722 8.17317 12.0506 8.87702 11.8467 9.61009C11.1099 9.42012 10.3895 9.2603 9.69308 9.13713C3.82744 8.10098 1.50173 9.77828 0.584095 11.3676C-0.333539 12.9571 -0.623415 15.8093 3.20694 20.3713C3.66185 20.9131 4.1603 21.4567 4.69335 21.9998C4.16048 22.5429 3.66185 23.0869 3.20694 23.6284C-0.623415 28.1903 -0.333353 31.0426 0.584095 32.632C1.30488 33.8801 2.89306 35.1825 6.38275 35.1825C7.33704 35.1825 8.43347 35.085 9.69308 34.8627C10.3895 34.7395 11.1101 34.5797 11.8467 34.3897C12.0506 35.1228 12.2722 35.8265 12.5139 36.4912C14.5495 42.0893 17.1646 43.2645 19 43.2645C20.8353 43.2645 23.4503 42.0893 25.486 36.4912C25.7277 35.8266 25.9493 35.1228 26.1532 34.3897C26.89 34.5797 27.6104 34.7395 28.307 34.8627C29.5668 35.0852 30.6628 35.1825 31.6173 35.1825C35.1064 35.1823 36.6954 33.8801 37.416 32.632C38.3336 31.0426 38.6233 28.1903 34.7931 23.6284C34.3382 23.0868 33.8396 22.5429 33.3065 21.9998ZM3.1675 31.1406C2.70012 30.3313 3.06535 28.4365 5.49153 25.5466C5.91202 25.0459 6.37456 24.5423 6.87059 24.0386C7.99307 25.0091 9.22086 25.9647 10.5337 26.8881C10.6764 28.4826 10.8894 30.0202 11.1678 31.4742C6.84938 32.5889 3.85051 32.3238 3.1675 31.1406ZM10.3272 23.0175C9.89197 22.6752 9.47557 22.3343 9.07834 21.9959C9.48041 21.6543 9.89662 21.3146 10.3272 20.9772C10.321 21.3168 10.318 21.6577 10.318 21.9996C10.318 22.3401 10.3212 22.6797 10.3272 23.0175ZM10.5335 17.1115C9.22384 18.0325 7.99903 18.9857 6.87878 19.9539C3.75414 16.7718 2.4843 14.042 3.16731 12.8588C3.49849 12.2852 4.51009 11.8013 6.39373 11.8013C7.16847 11.8013 8.09094 11.8831 9.17379 12.0746C9.81773 12.1883 10.4851 12.3371 11.1694 12.5146C10.8902 13.9718 10.6766 15.5129 10.5335 17.1115ZM24.2178 14.9977C23.9283 14.8236 23.6358 14.6513 23.3409 14.4811C23.046 14.3108 22.7504 14.1437 22.4547 13.9798C22.9666 13.775 23.4684 13.5852 23.9584 13.4112C24.0528 13.9225 24.1393 14.4517 24.2178 14.9977ZM18.9998 3.71803C20.3659 3.71803 22.0949 6.18254 23.2885 10.4797C21.8902 10.9657 20.452 11.5499 18.9996 12.2236C17.5473 11.5501 16.1094 10.9657 14.7108 10.4797C15.9046 6.18236 17.6338 3.71803 18.9998 3.71803ZM14.0425 13.4055C14.5395 13.5828 15.0418 13.7737 15.549 13.9776C15.2519 14.1421 14.9551 14.3097 14.6589 14.4809C14.3642 14.6511 14.0719 14.8234 13.7821 14.9976C13.8608 14.4498 13.9476 13.9186 14.0425 13.4055ZM13.7822 29.0017C14.0717 29.1759 14.3642 29.3481 14.6591 29.5184C14.954 29.6886 15.2493 29.8557 15.5451 30.0196C15.0333 30.2245 14.5317 30.4142 14.0416 30.5882C13.9471 30.0767 13.8606 29.5476 13.7822 29.0017ZM18.9998 40.2812C17.6336 40.2812 15.9046 37.8167 14.711 33.5195C16.1094 33.0336 17.5475 32.4492 18.9998 31.7756C20.4522 32.4492 21.89 33.0336 23.2886 33.5195C22.0953 37.8169 20.3662 40.2812 18.9998 40.2812ZM23.9571 30.5936C23.4602 30.4163 22.9578 30.2254 22.4506 30.0217C22.7476 29.8572 23.0445 29.6896 23.3405 29.5184C23.6356 29.3481 23.9279 29.1759 24.2176 29.0017C24.1389 29.5496 24.0518 30.0808 23.9571 30.5936ZM24.5998 25.2322C23.7162 25.817 22.7986 26.3869 21.8491 26.935C20.8792 27.4948 19.9288 28.0028 19.0004 28.4655C18.0524 27.9927 17.1 27.4831 16.1506 26.935C15.1806 26.3749 14.2654 25.8056 13.4001 25.2327C13.3366 24.197 13.3011 23.1197 13.3011 21.9996C13.3011 20.8797 13.3364 19.8027 13.3999 18.7671C14.2833 18.1827 15.2009 17.6124 16.1504 17.0643C17.1203 16.5044 18.0707 15.9965 18.9993 15.5338C19.9472 16.0065 20.8997 16.5162 21.8491 17.0643C22.819 17.6243 23.7342 18.1936 24.5996 18.7665C24.663 19.8023 24.6986 20.8796 24.6986 21.9996C24.6986 23.1195 24.6632 24.1966 24.5998 25.2322ZM34.8324 12.8588C35.2997 13.6682 34.9345 15.5632 32.5083 18.4528C32.0878 18.9535 31.6253 19.4572 31.1293 19.9608C30.0068 18.9903 28.779 18.0348 27.4662 17.1114C27.3235 15.5168 27.1104 13.9793 26.8321 12.5252C31.1503 11.4104 34.149 11.6757 34.8324 12.8588ZM27.6727 20.9819C28.1079 21.3242 28.5243 21.6651 28.9215 22.0035C28.5194 22.3451 28.1032 22.6849 27.6727 23.0222C27.6788 22.6826 27.6818 22.3418 27.6818 21.9996C27.6816 21.6591 27.6787 21.3198 27.6727 20.9819ZM34.8324 31.1406C34.365 31.9501 32.542 32.5814 28.8257 31.925C28.1818 31.8113 27.5144 31.6625 26.83 31.4846C27.1095 30.0274 27.3231 28.4863 27.466 26.8875C28.7756 25.9666 30.0005 25.0134 31.1207 24.0451C34.2457 27.2276 35.5156 29.9575 34.8324 31.1406Z" fill="#FFCD1D"/>
<path d="M18.998 19.7119C17.7369 19.7119 16.7109 20.7378 16.7109 21.9989C16.7109 23.26 17.7369 24.2859 18.998 24.2859C20.259 24.2859 21.285 23.26 21.285 21.9989C21.285 20.7378 20.259 19.7119 18.998 19.7119Z" fill="#FFCD1D"/>
</svg>
