<svg width="43" height="33" viewBox="0 0 43 33" fill="none" xmlns="http://www.w3.org/2000/svg">
<path d="M26.0424 6.52375C25.0843 6.0219 23.9008 6.39175 23.3989 7.34982C22.8971 8.3079 23.2669 9.49141 24.225 9.99326L28.3375 12.1474C29.2956 12.6493 30.4791 12.2794 30.9809 11.3214C31.4828 10.3633 31.1129 9.17977 30.1549 8.67792L26.0424 6.52375Z" fill="#08415C"/>
<path fill-rule="evenodd" clip-rule="evenodd" d="M42.4046 11.1569C42.797 9.82088 42.2113 8.33881 40.9092 7.68091L26.3323 0.315989C25.4193 -0.145334 24.3287 -0.100808 23.4543 0.444817C20.5666 2.24674 4.52903 12.2616 2.4768 13.7385C0.662489 15.0442 0.00921802 17.4185 9.56762e-05 19.3207C-0.00888503 21.1937 0.612608 23.6413 2.60864 24.8462C4.69874 26.1079 15.7144 31.5066 18.0824 32.6649C19.016 33.1216 20.0906 33.0395 20.9358 32.5045L41.0737 19.757C42.3781 18.9313 42.728 17.343 42.2242 16.0942C41.7249 14.8566 41.6388 13.7639 42.4046 11.1569ZM36.8002 9.99307L25.0584 4.06056C22.0046 5.96708 12.4133 11.963 7.51593 15.1076L19.317 21.0601L36.8002 9.99307ZM4.17858 17.8109C4.02694 18.2134 3.91964 18.7294 3.91672 19.3395C3.91041 20.6549 4.38183 21.3416 4.63276 21.4931C6.02118 22.3312 12.1682 25.389 16.3436 27.4473C16.3277 27.2508 16.318 27.0537 16.315 26.8551C16.3015 25.9487 16.4279 25.0653 16.6692 24.1113L4.17858 17.8109ZM38.3363 16.8543L20.4225 28.194C20.296 27.6554 20.2375 27.22 20.2312 26.7967C20.2233 26.2639 20.2985 25.6889 20.514 24.8907C20.6615 24.8285 20.805 24.7536 20.9429 24.6664L37.9279 13.9147C37.8939 14.9315 38.0238 15.8792 38.3363 16.8543Z" fill="#08415C"/>
</svg>
