<svg width="19" height="19" viewBox="0 0 19 19" fill="none" xmlns="http://www.w3.org/2000/svg">
<path fill-rule="evenodd" clip-rule="evenodd" d="M13.4887 12.5968C15.4131 10.1614 15.2511 6.61639 13.0025 4.36782C10.5793 1.94461 6.65052 1.94461 4.22731 4.36782C1.80411 6.79102 1.80411 10.7198 4.22731 13.143C6.47588 15.3916 10.0209 15.5536 12.4563 13.6292L15.0673 16.2401C15.3523 16.5252 15.8146 16.5252 16.0996 16.2401C16.3847 15.9551 16.3847 15.4928 16.0996 15.2078L13.4887 12.5968ZM11.9701 5.40019C13.8232 7.25323 13.8232 10.2576 11.9701 12.1106C10.1171 13.9637 7.11273 13.9637 5.25969 12.1106C3.40665 10.2576 3.40665 7.25323 5.25969 5.40019C7.11273 3.54716 10.1171 3.54716 11.9701 5.40019Z" fill="#282828"/>
</svg>
