<svg width="12" height="12" viewBox="0 0 12 12" fill="none" xmlns="http://www.w3.org/2000/svg">
<path d="M11.7757 3.456C11.7414 2.27448 11.1953 1.30336 10.4228 0.709655C9.42923 -0.0548263 8.05926 -0.195088 6.92057 0.638988C6.54476 0.915229 6.19303 1.29747 5.88895 1.79963C5.58487 1.29747 5.23368 0.915229 4.85733 0.639524C3.71864 -0.195088 2.34921 -0.0548264 1.35507 0.71019C0.582021 1.30389 0.0364984 2.27502 0.00223597 3.45654C-0.0165013 4.08397 0.0798616 4.78421 0.424092 5.49248C0.964796 6.6044 3.50504 9.07665 5.86914 11.2116L5.88788 11.232L5.88895 11.2309L5.89002 11.232L5.90929 11.2116C8.27287 9.07719 10.8126 6.60494 11.3538 5.49248C11.6986 4.78421 11.7939 4.08343 11.7757 3.456Z" fill="black"/>
</svg>
