<svg width="21" height="21" viewBox="0 0 21 21" fill="none" xmlns="http://www.w3.org/2000/svg">
<path d="M20.8913 8.51943L20.456 6.33506C20.3107 5.60808 19.6178 5.0386 18.8784 5.0386H17.9374C17.9362 5.0386 17.9353 5.03874 17.9341 5.03881C18.7913 4.59556 19.3792 3.69925 19.3792 2.66736C19.3792 1.19657 18.1862 0 16.7198 0C15.2532 0 14.0599 1.19657 14.0599 2.66736C14.0599 3.69925 14.6479 4.59556 15.5053 5.03881C15.504 5.03881 15.5029 5.0386 15.5017 5.0386H14.5605C13.8213 5.0386 13.1284 5.60808 12.9829 6.33541L12.8814 6.84509H8.01991L7.91827 6.33499C7.77289 5.60808 7.08001 5.0386 6.34078 5.0386H5.39961C5.39841 5.0386 5.39735 5.03881 5.39616 5.03881C6.25337 4.59556 6.84137 3.69925 6.84137 2.66736C6.84137 1.19657 5.64832 0 4.18183 0C2.71541 0 1.52229 1.19657 1.52229 2.66736C1.52229 3.69925 2.11022 4.59556 2.96751 5.03881C2.96638 5.03874 2.96532 5.0386 2.9642 5.0386H2.02295C1.28379 5.0386 0.590908 5.60808 0.445457 6.33534L0.0101595 8.51943C-0.0206917 8.6746 0.0195275 8.83541 0.119829 8.95776C0.220201 9.08004 0.37009 9.15097 0.52829 9.15097H3.14423L7.00013 17.5557C6.86081 17.7409 6.7603 17.9545 6.71459 18.1842L6.27922 20.3685C6.24837 20.5236 6.28859 20.6844 6.38889 20.8068C6.48926 20.9291 6.63915 21 6.79735 21H14.1041C14.2623 21 14.4122 20.9291 14.5126 20.8068C14.6129 20.6845 14.6531 20.5236 14.6223 20.3685L14.187 18.1844C14.1413 17.9547 14.0408 17.741 13.9015 17.5559L17.7574 9.15097H20.3732C20.5314 9.15097 20.6813 9.08004 20.7816 8.95776C20.8819 8.83541 20.9221 8.6746 20.8913 8.51943ZM16.7198 1.05655C17.6036 1.05655 18.3227 1.77915 18.3227 2.66736C18.3227 3.55528 17.6036 4.27768 16.7198 4.27768C15.8357 4.27768 15.1165 3.55528 15.1165 2.66736C15.1165 1.77915 15.8357 1.05655 16.7198 1.05655ZM16.7198 5.33422C17.0135 5.33422 17.2958 5.28555 17.5603 5.19701L16.7197 6.04077L15.8788 5.1968C16.1434 5.28548 16.4259 5.33422 16.7198 5.33422ZM4.18183 1.05655C5.06574 1.05655 5.78482 1.77915 5.78482 2.66736C5.78482 3.55528 5.06574 4.27768 4.18183 4.27768C3.29792 4.27768 2.57884 3.55528 2.57884 2.66736C2.57884 1.77915 3.29792 1.05655 4.18183 1.05655ZM4.18183 5.33422C4.47562 5.33422 4.75814 5.28548 5.02256 5.19687L4.18183 6.04084L3.34131 5.19701C3.6058 5.28555 3.88811 5.33422 4.18183 5.33422ZM1.48151 6.54221C1.52828 6.30829 1.78636 6.09515 2.02295 6.09515H2.74479L3.8076 7.16212C3.90671 7.26165 4.04138 7.31757 4.18183 7.31757C4.32228 7.31757 4.45696 7.26165 4.55613 7.16212L5.61909 6.09515H6.34092C6.57745 6.09515 6.83552 6.30822 6.88229 6.54186L7.19172 8.09442H1.17222L1.48151 6.54221ZM7.44128 19.9435L7.75085 18.3905C7.79719 18.157 8.05513 17.9444 8.29201 17.9444H9.01377L10.0765 19.0111C10.1756 19.1106 10.3103 19.1665 10.4507 19.1665C10.5912 19.1665 10.7258 19.1106 10.825 19.0112L11.8879 17.9444H12.6096C12.8464 17.9444 13.1043 18.157 13.1508 18.3907L13.4602 19.9435H7.44128ZM10.4507 16.1269C9.56691 16.1269 8.8479 15.4043 8.8479 14.5162C8.8479 13.6281 9.56691 12.9056 10.4507 12.9056C11.3345 12.9056 12.0536 13.6281 12.0536 14.5162C12.0536 15.4043 11.3345 16.1269 10.4507 16.1269ZM10.4507 17.1835C10.7444 17.1835 11.0269 17.1348 11.2913 17.0462L10.4507 17.8898L9.61023 17.0462C9.87465 17.1348 10.157 17.1835 10.4507 17.1835ZM13.019 16.9457C12.8864 16.9081 12.7487 16.8878 12.6095 16.8878H11.6685C11.6673 16.8878 11.6662 16.888 11.665 16.888C12.5223 16.4447 13.1102 15.5483 13.1102 14.5162C13.1102 13.0455 11.9172 11.849 10.4507 11.849C8.9844 11.849 7.79142 13.0455 7.79142 14.5162C7.79142 15.5483 8.37935 16.4447 9.23656 16.888C9.23544 16.888 9.23431 16.8878 9.23318 16.8878H8.29201C8.15276 16.8878 8.01512 16.9081 7.88256 16.9457L4.3065 9.15097H7.83558C7.99378 9.15097 8.14367 9.08004 8.24404 8.95776C8.34434 8.83548 8.38456 8.6746 8.35371 8.51943L8.23059 7.90163H12.671L12.548 8.51943C12.5171 8.67453 12.5574 8.83534 12.6577 8.95769C12.758 9.07997 12.9079 9.1509 13.0661 9.1509H16.5951L13.019 16.9457ZM13.7099 8.09442L14.0191 6.54221C14.0659 6.30829 14.324 6.09515 14.5606 6.09515H15.2825L16.3457 7.16219C16.4448 7.26165 16.5795 7.31757 16.7199 7.31757C16.8604 7.31757 16.995 7.26158 17.0942 7.16212L18.1569 6.09515H18.8785C19.1152 6.09515 19.3733 6.30815 19.4201 6.54186L19.7294 8.09442H13.7099Z" fill="black"/>
</svg>
