<svg width="25" height="24" viewBox="0 0 25 24" fill="none" xmlns="http://www.w3.org/2000/svg">
<path d="M12.1974 0C9.78496 0 7.42672 0.703788 5.42088 2.02236C3.41503 3.34094 1.85166 5.21508 0.928475 7.4078C0.00528495 9.60051 -0.236264 12.0133 0.234374 14.3411C0.705012 16.6689 1.8667 18.807 3.57253 20.4853C5.27836 22.1635 7.45173 23.3064 9.81778 23.7694C12.1838 24.2324 14.6363 23.9948 16.8651 23.0865C19.0939 22.1783 20.9988 20.6402 22.3391 18.6668C23.6794 16.6934 24.3947 14.3734 24.3947 12C24.3947 10.4241 24.0792 8.8637 23.4663 7.4078C22.8533 5.95189 21.9548 4.62902 20.8222 3.51472C19.6896 2.40041 18.345 1.5165 16.8651 0.913445C15.3852 0.310389 13.7992 0 12.1974 0ZM19.1206 9.8844L11.8022 16.4844C11.5705 16.6934 11.2657 16.8064 10.9514 16.7997C10.6371 16.7929 10.3376 16.6671 10.1153 16.4484L6.45607 12.8484C6.33957 12.7377 6.24665 12.6053 6.18273 12.4589C6.1188 12.3125 6.08515 12.155 6.08375 11.9957C6.08234 11.8363 6.1132 11.6783 6.17453 11.5309C6.23586 11.3834 6.32643 11.2494 6.44095 11.1367C6.55548 11.0241 6.69166 10.9349 6.84156 10.8746C6.99146 10.8143 7.15208 10.7839 7.31403 10.7853C7.47599 10.7867 7.63604 10.8198 7.78486 10.8827C7.93367 10.9456 8.06826 11.037 8.18078 11.1516L11.0142 13.9392L17.4715 8.1156C17.7099 7.90045 18.0254 7.7873 18.3487 7.80103C18.6719 7.81476 18.9763 7.95424 19.195 8.1888C19.4137 8.42336 19.5287 8.73377 19.5147 9.05176C19.5008 9.36975 19.359 9.66925 19.1206 9.8844Z" fill="black"/>
</svg>
